<svg width="21" height="12" viewBox="0 0 21 12" fill="none" xmlns="http://www.w3.org/2000/svg">
  <path
    d="M2.43863 1.01912C2.34277 0.928508 2.22999 0.857665 2.10675 0.810637C1.98351 0.763608 1.85221 0.741314 1.72035 0.745028C1.58849 0.748743 1.45865 0.778392 1.33825 0.832284C1.21785 0.886176 1.10924 0.963255 1.01863 1.05912C0.928018 1.15499 0.857176 1.26776 0.810147 1.391C0.763118 1.51425 0.740825 1.64554 0.744539 1.7774C0.748253 1.90926 0.777903 2.0391 0.831795 2.1595C0.885687 2.2799 0.962766 2.38851 1.05863 2.47912L10.0586 10.9791C10.2446 11.1564 10.4917 11.2553 10.7486 11.2553C11.0056 11.2553 11.2527 11.1564 11.4386 10.9791L20.4386 2.47912C20.6322 2.29612 20.7452 2.04371 20.7527 1.7774C20.7602 1.5111 20.6616 1.25273 20.4786 1.05912C20.2956 0.865512 20.0432 0.75253 19.7769 0.745028C19.5106 0.737527 19.2522 0.836121 19.0586 1.01912L10.7486 8.87912L2.43863 1.01912Z"
    fill="white" />
</svg>
  